<svg viewBox="0 0 1024 1024" version="1.1" xmlns="http://www.w3.org/2000/svg" width="200" height="200">
    <path d="M164.007138 320.208469a166.775244 166.775244 0 1 0 333.550488 0 166.775244 166.775244 0 1 0-333.550488 0Z" fill="url(#color_two)"></path>
    <path d="M330.782382 642.640608c-75.604777 0-146.762215-26.684039-204.577633-75.604777-66.710098-55.591748-106.736156-131.196526-113.407166-217.919653-6.67101-84.499457 17.789359-168.998914 73.381107-233.485342 55.591748-66.710098 133.420195-106.736156 217.919653-113.407166 84.499457-6.67101 168.998914 17.789359 235.709012 73.381107 135.643865 113.407166 153.433225 315.761129 40.026059 451.404995-55.591748 66.710098-133.420195 106.736156-217.919653 113.407166-11.11835 0-20.013029 2.22367-31.131379 2.22367z m2.22367-569.259501h-22.236699c-66.710098 6.67101-126.749186 37.802389-168.998914 88.946797S77.284011 277.95874 83.955021 342.445168c6.67101 66.710098 37.802389 126.749186 88.946796 168.998915 104.512486 88.946797 262.393051 73.381107 349.116179-31.131379 88.946797-104.512486 73.381107-262.393051-31.131379-349.116178-44.473398-37.802389-100.065147-57.815418-157.880565-57.815419z" fill="url(#color_one)"></path>
    <path d="M350.795411 382.471227l222.366993 549.246471c4.44734 8.89468 15.565689 11.11835 22.236699 4.44734l104.512486-100.065147c4.44734-4.44734 13.34202-4.44734 20.01303 0l193.459283 184.564604c6.67101 4.44734 13.34202 4.44734 20.01303 0l75.604777-80.052117c4.44734-4.44734 4.44734-13.34202 0-20.013029l-184.564604-177.893594c-4.44734-4.44734-6.67101-13.34202 0-20.01303l111.183496-117.854506c6.67101-6.67101 4.44734-17.789359-4.447339-22.236699l-558.141151-217.919652c-15.565689-6.67101-26.684039 6.67101-22.2367 17.789359z" fill="url(#color_one)"></path>
    <defs>
        <linearGradient id="color_one" x1="6.00017" y1="32.9999" x2="235" y2="344" gradientUnits="userSpaceOnUse">
            <stop stop-color="#41D1FF"/>
            <stop offset="1" stop-color="#BD34FE"/>
        </linearGradient>
        <linearGradient id="color_two" x1="194.651" y1="8.81818" x2="236.076" y2="292.989" gradientUnits="userSpaceOnUse">
            <stop stop-color="#FFEA83"/>
            <stop offset="0.0833333" stop-color="#FFDD35"/>
            <stop offset="1" stop-color="#FFA800"/>
        </linearGradient>
    </defs>
</svg>